<svg height="512pt" viewBox="1 0 511 512" width="512pt" xmlns="http://www.w3.org/2000/svg"><path d="m178.460938 263.300781c-10.113282 4.191407-21.800782-.660156-25.976563-10.78125l-.082031-.191406c-15.855469-38.285156-59.75-56.464844-98.035156-40.609375-38.589844 15.984375-56.753907 60.453125-40.21875 98.953125 16.273437 37.890625 60.582031 55.042969 98.679687 39.261719l375.855469-155.53125c6.128906-14.800782 9.566406-23.097656 15.699218-37.898438l-9.917968-23.941406zm-59.824219 3.011719c8.132812 19.636719-1.191407 42.148438-20.828125 50.28125-19.636719 8.132812-42.148438-1.191406-50.28125-20.828125-8.128906-19.636719 1.191406-42.148437 20.828125-50.277344 19.636719-8.132812 42.148437 1.1875 50.28125 20.824219zm0 0" fill="#e0e0e2"/><path d="m288.992188 238.652344c-14.011719-5.800782-30.074219.851562-35.878907 14.863281-5.226562 12.617187-.347656 26.902344 10.90625 33.855469l41.195313-17.046875c3.054687-12.882813-3.597656-26.441407-16.222656-31.671875zm0 0" fill="#acabb1"/><path d="m258.996094 238.652344c-14.011719-5.804688-30.078125.851562-35.878906 14.863281-5.804688 14.011719.847656 30.074219 14.859374 35.878906 14.011719 5.804688 30.078126-.851562 35.878907-14.863281 5.804687-14.011719-.847657-30.074219-14.859375-35.878906zm0 0" fill="#79787d"/><path d="m162.566406 399.671875c-15.78125 38.097656 1.371094 82.40625 39.261719 98.679687 38.5 16.535157 82.96875-1.628906 98.953125-40.21875 15.855469-38.285156-2.324219-82.179687-40.609375-98.035156l-.191406-.082031c-10.121094-4.175781-14.972657-15.863281-10.78125-25.976563l20.234375-48.910156-71.757813 29.695313zm104.445313 44.472656c-8.132813 19.636719-30.644531 28.960938-50.277344 20.828125-19.636719-8.132812-28.960937-30.644531-20.828125-50.28125 8.132812-19.636718 30.644531-28.960937 50.28125-20.828125 19.636719 8.132813 28.960938 30.644531 20.824219 50.28125zm112.925781-426.109375-80.820312 195.351563-71.746094 29.679687 90.722656-219.246094c14.804688-6.132812 23.101562-9.570312 37.902344-15.699218zm0 0" fill="#c6c5ca"/><path d="m44.15625 310.671875c-16.535156-38.5 1.628906-82.964844 40.21875-98.953125 4.507812-1.863281 9.089844-3.257812 13.695312-4.203125-14.171874-2.902344-29.332031-1.746094-43.699218 4.203125-38.59375 15.988281-56.757813 60.453125-40.222656 98.953125 14.261718 33.203125 50.050781 50.480469 84.320312 43.628906-23.429688-4.671875-44.242188-20.179687-54.3125-43.628906zm0 0" fill="#acabb1"/><path d="m208.46875 263.300781 290.386719-120.136719-4.390625-10.597656-307.023438 127.019532c5.523438 5.035156 13.691406 6.753906 21.027344 3.714843zm0 0" fill="#acabb1"/><path d="m253.113281 253.515625c2.203125-5.320313 5.882813-9.574219 10.367188-12.496094-1.398438-.910156-2.898438-1.703125-4.496094-2.367187-14.011719-5.800782-30.074219.851562-35.878906 14.863281-5.804688 14.011719.851562 30.074219 14.863281 35.878906 8.691406 3.597657 18.175781 2.402344 25.507812-2.367187-10.867187-7.074219-15.507812-21.097656-10.363281-33.511719zm0 0" fill="#575759"/><path d="m348.101562 23.820312c9.078126-3.761718 15.710938-6.507812 22.898438-9.484374l-15.003906-6.214844c-14.800782 6.128906-23.097656 9.566406-37.902344 15.699218l-90.722656 219.25 36.203125-14.980468zm0 0" fill="#787680"/><path d="m231.835938 498.351562c-37.890626-16.273437-55.042969-60.582031-39.261719-98.679687l35.109375-84.847656 35.550781-14.710938 6.199219-14.980469-71.757813 29.691407-35.109375 84.847656c-15.78125 38.097656 1.371094 82.40625 39.261719 98.679687 14.640625 6.289063 30.144531 7.558594 44.617187 4.59375-4.917968-1.011718-9.808593-2.53125-14.609374-4.59375zm0 0" fill="#787680"/><path d="m498.523438 122.765625-322.929688 133.605469h-.003906c-3.039063 1.257812-6.398438 1.25-9.46875-.023438-3.066406-1.269531-5.449219-3.648437-6.707032-6.695312l-.082031-.195313c-17.414062-42.042969-65.789062-62.082031-107.835937-44.664062-20.554688 8.511719-36.488282 24.554687-44.871094 45.164062-8.378906 20.609375-8.15625 43.222657.632812 63.675781 13.304688 30.984376 44.035157 49.636719 76.335938 49.632813 10.71875 0 21.617188-2.058594 32.101562-6.398437l378.726563-156.71875 18.078125-43.640626zm-250.046876 121.289063c2.585938 0 5.175782.507812 7.636719 1.527343 4.925781 2.042969 8.761719 5.878907 10.804688 10.804688.015625.042969.035156.089843.054687.136719h-36.992187c.019531-.046876.039062-.09375.058593-.136719 1.902344-4.601563 5.375-8.25 9.839844-10.375l1.957032-.808594c2.160156-.765625 4.398437-1.148437 6.640624-1.148437zm-18.4375 27.609374c-.019531-.046874-.039062-.09375-.058593-.136718h36.992187c-.019531.042968-.039062.089844-.054687.132812-2.042969 4.925782-5.878907 8.761719-10.804688 10.804688-4.925781 2.039062-10.347656 2.039062-15.273437-.003906-4.925782-2.039063-8.761719-5.875-10.800782-10.796876zm-120.082031 71.339844c-34.527343 14.300782-74.414062-1.53125-88.914062-35.292968-7.191407-16.738282-7.375-35.242188-.519531-52.105469 6.859374-16.863281 19.898437-29.988281 36.714843-36.957031 8.425781-3.488282 17.160157-5.140626 25.757813-5.140626 26.511718 0 51.71875 15.710938 62.476562 41.6875l.078125.1875c2.785157 6.746094 8.046875 12.011719 14.820313 14.824219 6.773437 2.808594 14.214844 2.820313 20.960937.027344l32.972657-13.644531c-1.519532 6.921875-.894532 14.128906 1.871093 20.8125 2.78125 6.707031 7.457031 12.261718 13.457031 16.078125l-21.132812 8.746093-8.261719-19.964843-13.863281 5.738281 8.261719 19.964844zm372.984375-154.34375-200.3125 82.890625c1.546875-6.949219.929688-14.191406-1.851562-20.90625-2.765625-6.675781-7.410156-12.207031-13.367188-16.023437l222.992188-92.257813 5.859375 14.140625zm0 0"/><path d="m65.484375 238.558594c-23.425781 9.703125-34.589844 36.652344-24.886719 60.078125 7.328125 17.691406 24.488282 28.390625 42.546875 28.390625 5.851563 0 11.800781-1.128906 17.535157-3.503906 11.347656-4.699219 20.1875-13.539063 24.886718-24.886719 4.703125-11.347657 4.703125-23.847657 0-35.195313-9.703125-23.425781-36.65625-34.585937-60.082031-24.882812zm29.453125 71.105468c-15.78125 6.539063-33.941406-.984374-40.476562-16.765624-3.167969-7.648438-3.167969-16.066407 0-23.714844 3.164062-7.644532 9.121093-13.597656 16.765624-16.765625 3.863282-1.601563 7.871094-2.359375 11.816407-2.359375 12.164062 0 23.726562 7.207031 28.664062 19.125 6.535157 15.78125-.984375 33.945312-16.769531 40.480468zm0 0"/><path d="m323.839844 29.558594 32.15625-13.320313 14.140625 5.859375-67.144531 162.300782 13.859374 5.734374 72.882813-176.15625-33.738281-13.976562-43.644532 18.078125-81.105468 196 13.863281 5.738281zm0 0"/><path d="m263.042969 353.167969-.203125-.085938c-3.039063-1.253906-5.414063-3.632812-6.6875-6.703125-1.273438-3.066406-1.28125-6.429687-.023438-9.472656l9.429688-22.785156-13.863282-5.738282-9.425781 22.785157c-2.792969 6.746093-2.785156 14.191406.027344 20.960937 2.808594 6.773438 8.074219 12.039063 14.8125 14.820313l.195313.078125c34.402343 14.25 50.796874 53.832031 36.546874 88.234375-6.96875 16.816406-20.089843 29.855469-36.957031 36.714843-16.859375 6.855469-35.363281 6.671876-52.105469-.519531-33.761718-14.5-49.59375-54.386719-35.289062-88.917969l24.300781-58.726562-13.863281-5.734375-24.300781 58.722656c-17.425781 42.070313 1.96875 90.71875 43.234375 108.445313 10.480468 4.5 21.527344 6.753906 32.585937 6.753906 10.515625 0 21.042969-2.039062 31.089844-6.125 20.609375-8.382812 36.652344-24.316406 45.164063-44.871094 17.414062-42.046875-2.621094-90.421875-44.667969-107.835937zm0 0"/><path d="m188.976562 447.015625c4.699219 11.347656 13.539063 20.1875 24.886719 24.886719 5.734375 2.375 11.683594 3.5 17.535157 3.5 18.054687 0 35.21875-10.695313 42.546874-28.386719 9.703126-23.425781-1.460937-50.378906-24.886718-60.082031-23.425782-9.703125-50.378906 1.460937-60.082032 24.886718-4.699218 11.347657-4.699218 23.847657 0 35.195313zm13.859376-29.453125c4.9375-11.917969 16.5-19.125 28.664062-19.125 3.945312 0 7.953125.757812 11.816406 2.355469 15.78125 6.539062 23.304688 24.699219 16.765625 40.480469-6.535156 15.78125-24.695312 23.304687-40.476562 16.769531-7.648438-3.167969-13.601563-9.121094-16.769531-16.769531-3.167969-7.644532-3.167969-16.066407 0-23.710938zm0 0"/><g fill="#fff"><path d="m286.90625 197.109375-13.863281-5.734375 44.574219-107.738281 13.863281 5.734375zm48.398438-116.980469-13.863282-5.734375 5.734375-13.867187 13.863281 5.738281zm9.558593-23.105468-13.859375-5.734376 5.734375-13.863281 13.863281 5.734375zm0 0"/><path d="m300.613281 253.285156-5.734375-13.863281 125.589844-51.96875 5.734375 13.863281zm134.832031-55.796875-5.734374-13.859375 13.863281-5.738281 5.734375 13.863281zm23.105469-9.558593-5.734375-13.863282 13.859375-5.734375 5.738281 13.863281zm0 0"/></g></svg>